<svg width="21" height="21" viewBox="0 0 21 21" fill="none" xmlns="http://www.w3.org/2000/svg">
<path d="M17.0766 0.00772749L2.93602 0.0450859C1.32074 0.0493534 0.00982018 1.36721 0.0140877 2.9825L0.0514461 17.1231C0.0557136 18.7384 1.37357 20.0493 2.98886 20.045L8.88728 20.0294L8.8686 12.9591L6.52486 12.9653L6.51557 9.44972L8.85931 9.44353L8.85302 7.06073C8.8479 5.12211 10.4207 3.54095 12.3593 3.53583L15.914 3.52644L15.9233 7.04205L12.3686 7.05144L12.3749 9.43424L15.9296 9.42485L15.353 12.942L12.3842 12.9499L12.4029 20.0201L17.1294 20.0077C18.7447 20.0034 20.0556 18.6855 20.0514 17.0702L20.014 2.92966C20.0097 1.31437 18.6919 0.00346 17.0766 0.00772749Z" fill="black"/>
</svg>
