<svg width="21" height="20" viewBox="0 0 21 20" fill="none" xmlns="http://www.w3.org/2000/svg">
<path d="M10.007 0.211343C4.48206 0.22594 0.0186033 4.59942 0.0328152 9.9788C0.0441878 14.2835 2.91882 17.9263 6.89471 19.2028C7.39495 19.2932 7.57748 18.9912 7.5768 18.7326C7.57619 18.5013 7.56624 17.8884 7.55993 17.0764C4.77982 17.6711 4.18815 15.7785 4.18815 15.7785C3.73018 14.6554 3.07189 14.3564 3.07189 14.3564C2.16447 13.755 3.14033 13.7648 3.14033 13.7648C4.14467 13.8298 4.67464 14.7644 4.67464 14.7644C5.57024 16.2514 7.01826 15.8172 7.58927 15.5671C7.67761 14.9365 7.93397 14.5071 8.21916 14.2627C5.99769 14.0249 3.66132 13.1934 3.65146 9.4612C3.64865 8.39805 4.03385 7.528 4.67372 6.84479C4.56057 6.59892 4.22045 5.60935 4.75441 4.26639C4.75441 4.26639 5.59121 4.00314 7.50704 5.25785C8.30646 5.0393 9.15617 4.92967 10.0062 4.92247C10.8562 4.92518 11.7064 5.03032 12.507 5.24464C14.4037 3.97986 15.2419 4.23868 15.2419 4.23868C15.7829 5.5788 15.448 6.57016 15.3487 6.81659C15.988 7.49641 16.3778 8.36442 16.3806 9.42757C16.3905 13.1697 14.0552 13.9994 11.8308 14.2449C12.1816 14.5364 12.5081 15.1328 12.5106 16.0456C12.514 17.3491 12.5043 18.3966 12.5051 18.713C12.5058 18.9683 12.6816 19.2726 13.1938 19.1738C17.1913 17.8845 20.0441 14.224 20.0327 9.92596C20.0185 4.54658 15.5295 0.196753 10.007 0.211343Z" fill="#212121"/>
</svg>
