<svg width="21" height="21" viewBox="0 0 21 21" fill="none" xmlns="http://www.w3.org/2000/svg">
<path d="M13.7564 0.108968L6.25645 0.128782C2.80521 0.1379 0.0138638 2.94403 0.0229817 6.39527L0.0427962 13.8952C0.0519141 17.3465 2.85805 20.1378 6.30929 20.1287L13.8093 20.1089C17.2605 20.0998 20.0518 17.2936 20.0427 13.8424L20.0229 6.34243C20.0138 2.8912 17.2077 0.0998498 13.7564 0.108968ZM18.1677 13.8474C18.1741 16.2599 16.2168 18.2275 13.8043 18.2339L6.30433 18.2537C3.89184 18.2601 1.92416 16.3028 1.91779 13.8903L1.89798 6.39032C1.8916 3.97783 3.84891 2.01015 6.2614 2.00378L13.7614 1.98396C16.1739 1.97759 18.1415 3.9349 18.1479 6.34739L18.1677 13.8474Z" fill="black"/>
<path d="M10.0196 5.11887C7.2584 5.12617 5.02557 7.37082 5.03286 10.1321C5.04016 12.8933 7.28481 15.1261 10.0461 15.1188C12.8073 15.1115 15.0401 12.8669 15.0328 10.1056C15.0255 7.3444 12.7809 5.11158 10.0196 5.11887ZM10.0411 13.2438C8.31861 13.2484 6.91241 11.8496 6.90786 10.1271C6.9033 8.40337 8.3021 6.99841 10.0246 6.99386C11.7471 6.98931 13.1533 8.38685 13.1578 10.1106C13.1624 11.8331 11.7636 13.2393 10.0411 13.2438Z" fill="black"/>
<path d="M15.3954 5.39588C15.7633 5.39491 16.0608 5.09584 16.0599 4.72788C16.0589 4.35992 15.7598 4.06242 15.3919 4.06339C15.0239 4.06437 14.7264 4.36344 14.7274 4.7314C14.7283 5.09936 15.0274 5.39686 15.3954 5.39588Z" fill="black"/>
</svg>
